<?xml version="1.0" encoding="UTF-8" standalone="no"?>
<!DOCTYPE svg PUBLIC "-//W3C//DTD SVG 1.1//EN" "http://www.w3.org/Graphics/SVG/1.1/DTD/svg11.dtd">
<svg version="1.1" xmlns="http://www.w3.org/2000/svg" xmlns:xlink="http://www.w3.org/1999/xlink" preserveAspectRatio="xMidYMid meet" viewBox="0 0 640 640" width="640" height="640"><defs><path d="M1 289.1C1 295.48 1 346.52 1 352.9C1 486.88 1 561.32 1 576.2C1 611.29 27.01 640 59.08 640C76.52 640 163.66 640 320.51 640C477.35 640 564.48 640 581.92 640C614.01 640 640 611.29 640 576.2C640 561.32 640 486.88 640 352.9C640 346.52 640 295.48 640 289.1C640 155.12 640 80.68 640 65.8C640 30.71 614.01 2 581.92 2C564.48 2 477.35 2 320.51 2C294.36 2 85.23 2 59.08 2C20.36 21.14 1 42.4 1 65.8C1 80.68 1 155.12 1 289.1Z" id="bXVQdstIk"></path><path d="M1 289.1C1 295.48 1 346.52 1 352.9C1 486.88 1 561.32 1 576.2C1 611.29 27.01 640 59.08 640C76.52 640 163.66 640 320.51 640C477.35 640 564.48 640 581.92 640C614.01 640 640 611.29 640 576.2C640 561.32 640 486.88 640 352.9C640 346.52 640 295.48 640 289.1C640 155.12 640 80.68 640 65.8C640 30.71 614.01 2 581.92 2C564.48 2 477.35 2 320.51 2C294.36 2 85.23 2 59.08 2C20.36 21.14 1 42.4 1 65.8C1 80.68 1 155.12 1 289.1Z" id="el4aDzg6g"></path><path d="M1 321.01C1 316.75 1 295.48 1 257.2L1 161.5L640 161.5L640 257.2C640 295.48 640 316.75 640 321.01C640 454.99 640 529.41 640 544.3C640 579.4 614.01 608.11 581.92 608.11C564.48 608.11 477.35 608.11 320.51 608.11C294.36 608.11 85.23 608.11 59.08 608.11C20.36 588.97 1 567.69 1 544.3C1 529.41 1 454.99 1 321.01Z" id="a2jBnGVUTh"></path><path d="M1 321.01C1 316.75 1 295.48 1 257.2L1 161.5L640 161.5L640 257.2C640 295.48 640 316.75 640 321.01C640 454.99 640 529.41 640 544.3C640 579.4 614.01 608.11 581.92 608.11C564.48 608.11 477.35 608.11 320.51 608.11C294.36 608.11 85.23 608.11 59.08 608.11C20.36 588.97 1 567.69 1 544.3C1 529.41 1 454.99 1 321.01Z" id="d3leQAXaHy"></path><path d="M146.23 193.4L88.14 266.77L88.14 301.87L175.27 193.4L88.14 81.76L88.14 116.84L146.23 193.4Z" id="dTroDV8bu"></path><path d="M146.23 193.4L88.14 266.77L88.14 301.87L175.27 193.4L88.14 81.76L88.14 116.84L146.23 193.4Z" id="aF53VRLg3"></path><path d="M1 289.1C1 293.36 1 314.62 1 352.9L1 448.6L640 448.6L640 352.9C640 314.62 640 293.36 640 289.1C640 155.12 640 80.68 640 65.8C640 30.57 614.01 2 581.92 2C564.48 2 477.35 2 320.51 2C294.36 2 85.23 2 59.08 2C20.36 21.04 1 42.31 1 65.8C1 80.68 1 155.12 1 289.1Z" id="a1CKu1HJ0v"></path><path d="M1 289.1C1 293.36 1 314.62 1 352.9L1 448.6L640 448.6L640 352.9C640 314.62 640 293.36 640 289.1C640 155.12 640 80.68 640 65.8C640 30.57 614.01 2 581.92 2C564.48 2 477.35 2 320.51 2C294.36 2 85.23 2 59.08 2C20.36 21.04 1 42.31 1 65.8C1 80.68 1 155.12 1 289.1Z" id="dgJ5NVrVe"></path><path d="M88.14 249.23L175.27 193.4L88.14 137.57L88.14 101.68L233.37 193.4L88.14 285.12L88.14 249.23Z" id="i1sbzZsgv8"></path><path d="M88.14 249.23L175.27 193.4L88.14 137.57L88.14 101.68L233.37 193.4L88.14 285.12L88.14 249.23Z" id="beRtLYyoO"></path><path d="M291.79 432.37C291.79 529.43 369.74 608.11 465.9 608.11C562.05 608.11 640 529.43 640 432.37C640 335.3 562.05 256.62 465.9 256.62C369.74 256.62 291.79 335.3 291.79 432.37Z" id="c33ZdmbXaJ"></path><path d="M291.79 432.37C291.79 529.43 369.74 608.11 465.9 608.11C562.05 608.11 640 529.43 640 432.37C640 335.3 562.05 256.62 465.9 256.62C369.74 256.62 291.79 335.3 291.79 432.37Z" id="cbt0xi0q5"></path><path d="M513.66 352.93L514.68 353.03L515.72 353.17L516.75 353.34L517.79 353.54L518.8 353.77L519.82 354.04L520.82 354.33L521.83 354.66L522.82 355.03L523.8 355.42L524.79 355.85L525.74 356.31L507.79 374.43L507.48 374.76L507.18 375.1L506.89 375.46L506.62 375.82L506.37 376.18L506.12 376.55L505.9 376.94L505.7 377.32L505.51 377.71L505.34 378.11L505.04 378.91L504.92 379.33L504.82 379.73L504.73 380.15L504.66 380.58L504.61 380.99L504.56 381.41L504.54 381.84L504.52 382.25L504.54 382.68L504.56 383.1L504.61 383.51L504.66 383.94L504.73 384.36L504.92 385.19L505.04 385.59L505.34 386.39L505.51 386.79L505.7 387.18L505.9 387.57L506.12 387.95L506.62 388.7L506.89 389.06L507.18 389.4L507.48 389.75L507.79 390.08L508.12 390.4L508.46 390.71L508.8 390.99L509.16 391.26L509.53 391.52L509.9 391.77L510.66 392.2L511.05 392.38L511.44 392.55L511.84 392.71L512.24 392.85L513.06 393.08L513.47 393.17L513.88 393.24L514.29 393.3L514.71 393.34L515.12 393.37L515.97 393.37L516.38 393.34L516.8 393.3L517.21 393.24L517.62 393.17L518.03 393.08L518.85 392.85L519.25 392.71L519.65 392.55L520.04 392.38L520.43 392.2L521.19 391.77L521.56 391.52L521.93 391.26L522.29 390.99L522.63 390.71L522.97 390.4L523.3 390.08L541.25 371.95L541.7 372.93L542.13 373.91L542.51 374.9L542.86 375.91L543.19 376.91L543.48 377.93L543.74 378.94L543.97 379.97L544.16 380.99L544.33 382.04L544.45 383.07L544.55 384.1L544.61 385.15L544.64 386.19L544.64 387.22L544.61 388.27L544.56 389.32L544.46 390.35L544.34 391.38L544.18 392.41L543.99 393.44L543.77 394.46L543.52 395.48L543.23 396.49L542.92 397.5L542.56 398.5L542.19 399.47L541.78 400.46L541.35 401.42L540.87 402.38L540.36 403.33L539.83 404.27L539.27 405.19L538.67 406.09L538.05 406.99L537.39 407.87L536.7 408.73L535.99 409.59L535.23 410.4L534.45 411.22L533.65 412.01L532.83 412.77L531.98 413.48L531.12 414.19L530.24 414.85L529.35 415.46L528.45 416.06L527.54 416.62L526.59 417.15L525.65 417.65L524.69 418.13L523.72 418.56L522.75 418.97L521.77 419.34L520.77 419.67L519.76 419.99L518.74 420.26L517.73 420.5L516.71 420.72L515.68 420.91L514.64 421.05L513.62 421.16L512.58 421.25L511.54 421.31L510.5 421.32L509.45 421.32L508.41 421.28L507.37 421.19L506.33 421.09L505.3 420.95L504.26 420.78L503.24 420.58L502.23 420.35L501.2 420.07L500.2 419.79L499.19 419.46L498.21 419.09L497.22 418.7L496.24 418.27L495.28 417.81L427.27 486.46L427.49 487.49L427.65 488.53L427.76 489.56L427.8 490.07L427.83 490.59L427.83 491.62L427.82 492.14L427.79 492.65L427.75 493.17L427.69 493.67L427.62 494.19L427.54 494.69L427.35 495.69L427.23 496.19L427.09 496.69L426.95 497.18L426.63 498.15L426.45 498.64L426.04 499.59L425.82 500.06L425.59 500.53L425.34 500.99L425.08 501.45L424.82 501.89L424.53 502.34L424.23 502.78L423.93 503.21L423.6 503.64L423.28 504.06L422.93 504.47L422.58 504.89L422.21 505.29L421.83 505.69L421.23 506.26L420.61 506.82L419.97 507.34L419.31 507.84L418.64 508.3L417.96 508.73L417.26 509.13L416.55 509.5L415.84 509.84L415.1 510.16L414.36 510.45L413.61 510.7L412.84 510.92L412.09 511.12L411.31 511.28L410.53 511.42L409.75 511.52L408.97 511.59L408.19 511.63L407.4 511.65L406.62 511.63L405.84 511.59L405.05 511.52L404.27 511.42L403.5 511.28L402.73 511.12L401.96 510.92L401.21 510.7L400.46 510.45L399.72 510.16L398.98 509.84L398.25 509.5L397.56 509.13L396.86 508.73L396.18 508.3L395.51 507.84L394.85 507.34L394.21 506.82L393.59 506.26L392.99 505.69L392.42 505.07L391.87 504.44L391.35 503.81L390.86 503.15L390.41 502.47L389.97 501.78L389.57 501.08L389.2 500.36L388.86 499.63L388.55 498.9L388.27 498.14L388.01 497.39L387.79 496.62L387.6 495.85L387.44 495.07L387.3 494.29L387.21 493.5L387.14 492.71L387.08 491.92L387.07 491.13L387.08 490.33L387.14 489.54L387.21 488.76L387.3 487.97L387.44 487.18L387.6 486.41L387.79 485.63L388.01 484.87L388.27 484.11L388.55 483.37L388.86 482.62L389.2 481.89L389.57 481.18L389.97 480.47L390.41 479.79L390.86 479.11L391.35 478.45L391.87 477.81L392.42 477.18L392.99 476.58L393.39 476.19L393.78 475.82L394.19 475.46L394.6 475.12L395.03 474.79L395.45 474.47L395.89 474.16L396.33 473.87L396.78 473.58L397.68 473.07L398.14 472.82L398.61 472.6L399.09 472.38L399.57 472.18L400.05 471.99L400.52 471.82L401.02 471.65L401.51 471.49L402.49 471.23L403 471.12L403.49 471.02L404 470.92L405.01 470.78L405.51 470.72L406.02 470.68L406.53 470.65L407.54 470.62L408.55 470.65L409.04 470.68L410.05 470.76L410.55 470.83L411.05 470.9L411.54 470.99L412.04 471.09L480.05 402.44L479.58 401.46L479.17 400.48L478.78 399.49L478.42 398.48L478.09 397.47L477.79 396.45L477.53 395.43L477.3 394.4L477.09 393.36L476.93 392.32L476.79 391.28L476.68 390.23L476.62 389.17L476.58 388.13L476.56 387.08L476.59 386.02L476.63 384.97L476.73 383.93L476.84 382.88L476.99 381.84L477.16 380.81L477.37 379.77L477.61 378.74L477.89 377.73L478.19 376.71L478.53 375.71L478.9 374.7L479.3 373.71L479.73 372.74L480.2 371.78L480.69 370.82L481.22 369.87L481.77 368.96L482.37 368.04L482.99 367.14L483.64 366.25L484.33 365.39L485.04 364.55L485.79 363.71L486.57 362.9L487.38 362.11L488.2 361.35L489.05 360.63L489.91 359.93L490.78 359.27L491.67 358.66L492.57 358.06L493.49 357.5L494.42 356.97L495.38 356.47L496.33 355.99L497.29 355.56L498.27 355.15L499.26 354.77L500.26 354.45L501.26 354.13L502.27 353.86L503.29 353.61L504.32 353.4L505.34 353.21L506.37 353.07L507.41 352.96L508.45 352.87L509.49 352.81L510.53 352.8L511.57 352.8L512.6 352.84L513.66 352.93ZM404.61 482.49L402.94 483.35L401.43 484.54L400.17 485.99L399.28 487.61L398.75 489.36L398.57 491.16L398.75 492.98L399.28 494.77L400.17 496.46L401.43 498L402.85 499.26L404.46 500.16L406.18 500.7L407.99 500.88L409.79 500.7L411.56 500.16L413.23 499.26L414.76 498L415.99 496.46L416.85 494.82L417.36 493.07L417.51 491.26L417.31 489.47L416.78 487.72L415.92 486.06L414.76 484.54L413.32 483.28L411.71 482.41L409.99 481.91L408.19 481.76L406.38 481.95L404.61 482.49Z" id="c3thpvm3dH"></path><path d="M513.66 352.93L514.68 353.03L515.72 353.17L516.75 353.34L517.79 353.54L518.8 353.77L519.82 354.04L520.82 354.33L521.83 354.66L522.82 355.03L523.8 355.42L524.79 355.85L525.74 356.31L507.79 374.43L507.48 374.76L507.18 375.1L506.89 375.46L506.62 375.82L506.37 376.18L506.12 376.55L505.9 376.94L505.7 377.32L505.51 377.71L505.34 378.11L505.04 378.91L504.92 379.33L504.82 379.73L504.73 380.15L504.66 380.58L504.61 380.99L504.56 381.41L504.54 381.84L504.52 382.25L504.54 382.68L504.56 383.1L504.61 383.51L504.66 383.94L504.73 384.36L504.92 385.19L505.04 385.59L505.34 386.39L505.51 386.79L505.7 387.18L505.9 387.57L506.12 387.95L506.62 388.7L506.89 389.06L507.18 389.4L507.48 389.75L507.79 390.08L508.12 390.4L508.46 390.71L508.8 390.99L509.16 391.26L509.53 391.52L509.9 391.77L510.66 392.2L511.05 392.38L511.44 392.55L511.84 392.71L512.24 392.85L513.06 393.08L513.47 393.17L513.88 393.24L514.29 393.3L514.71 393.34L515.12 393.37L515.97 393.37L516.38 393.34L516.8 393.3L517.21 393.24L517.62 393.17L518.03 393.08L518.85 392.85L519.25 392.71L519.65 392.55L520.04 392.38L520.43 392.2L521.19 391.77L521.56 391.52L521.93 391.26L522.29 390.99L522.63 390.71L522.97 390.4L523.3 390.08L541.25 371.95L541.7 372.93L542.13 373.91L542.51 374.9L542.86 375.91L543.19 376.91L543.48 377.93L543.74 378.94L543.97 379.97L544.16 380.99L544.33 382.04L544.45 383.07L544.55 384.1L544.61 385.15L544.64 386.19L544.64 387.22L544.61 388.27L544.56 389.32L544.46 390.35L544.34 391.38L544.18 392.41L543.99 393.44L543.77 394.46L543.52 395.48L543.23 396.49L542.92 397.5L542.56 398.5L542.19 399.47L541.78 400.46L541.35 401.42L540.87 402.38L540.36 403.33L539.83 404.27L539.27 405.19L538.67 406.09L538.05 406.99L537.39 407.87L536.7 408.73L535.99 409.59L535.23 410.4L534.45 411.22L533.65 412.01L532.83 412.77L531.98 413.48L531.12 414.19L530.24 414.85L529.35 415.46L528.45 416.06L527.54 416.62L526.59 417.15L525.65 417.65L524.69 418.13L523.72 418.56L522.75 418.97L521.77 419.34L520.77 419.67L519.76 419.99L518.74 420.26L517.73 420.5L516.71 420.72L515.68 420.91L514.64 421.05L513.62 421.16L512.58 421.25L511.54 421.31L510.5 421.32L509.45 421.32L508.41 421.28L507.37 421.19L506.33 421.09L505.3 420.95L504.26 420.78L503.24 420.58L502.23 420.35L501.2 420.07L500.2 419.79L499.19 419.46L498.21 419.09L497.22 418.7L496.24 418.27L495.28 417.81L427.27 486.46L427.49 487.49L427.65 488.53L427.76 489.56L427.8 490.07L427.83 490.59L427.83 491.62L427.82 492.14L427.79 492.65L427.75 493.17L427.69 493.67L427.62 494.19L427.54 494.69L427.35 495.69L427.23 496.19L427.09 496.69L426.95 497.18L426.63 498.15L426.45 498.64L426.04 499.59L425.82 500.06L425.59 500.53L425.34 500.99L425.08 501.45L424.82 501.89L424.53 502.34L424.23 502.78L423.93 503.21L423.6 503.64L423.28 504.06L422.93 504.47L422.58 504.89L422.21 505.29L421.83 505.69L421.23 506.26L420.61 506.82L419.97 507.34L419.31 507.84L418.64 508.3L417.96 508.73L417.26 509.13L416.55 509.5L415.84 509.84L415.1 510.16L414.36 510.45L413.61 510.7L412.84 510.92L412.09 511.12L411.31 511.28L410.53 511.42L409.75 511.52L408.97 511.59L408.19 511.63L407.4 511.65L406.62 511.63L405.84 511.59L405.05 511.52L404.27 511.42L403.5 511.28L402.73 511.12L401.96 510.92L401.21 510.7L400.46 510.45L399.72 510.16L398.98 509.84L398.25 509.5L397.56 509.13L396.86 508.73L396.18 508.3L395.51 507.84L394.85 507.34L394.21 506.82L393.59 506.26L392.99 505.69L392.42 505.07L391.87 504.44L391.35 503.81L390.86 503.15L390.41 502.47L389.97 501.78L389.57 501.08L389.2 500.36L388.86 499.63L388.55 498.9L388.27 498.14L388.01 497.39L387.79 496.62L387.6 495.85L387.44 495.07L387.3 494.29L387.21 493.5L387.14 492.71L387.08 491.92L387.07 491.13L387.08 490.33L387.14 489.54L387.21 488.76L387.3 487.97L387.44 487.18L387.6 486.41L387.79 485.63L388.01 484.87L388.27 484.11L388.55 483.37L388.86 482.62L389.2 481.89L389.57 481.18L389.97 480.47L390.41 479.79L390.86 479.11L391.35 478.45L391.87 477.81L392.42 477.18L392.99 476.58L393.39 476.19L393.78 475.82L394.19 475.46L394.6 475.12L395.03 474.79L395.45 474.47L395.89 474.16L396.33 473.87L396.78 473.58L397.68 473.07L398.14 472.82L398.61 472.6L399.09 472.38L399.57 472.18L400.05 471.99L400.52 471.82L401.02 471.65L401.51 471.49L402.49 471.23L403 471.12L403.49 471.02L404 470.92L405.01 470.78L405.51 470.72L406.02 470.68L406.53 470.65L407.54 470.62L408.55 470.65L409.04 470.68L410.05 470.76L410.55 470.83L411.05 470.9L411.54 470.99L412.04 471.09L480.05 402.44L479.58 401.46L479.17 400.48L478.78 399.49L478.42 398.48L478.09 397.47L477.79 396.45L477.53 395.43L477.3 394.4L477.09 393.36L476.93 392.32L476.79 391.28L476.68 390.23L476.62 389.17L476.58 388.13L476.56 387.08L476.59 386.02L476.63 384.97L476.73 383.93L476.84 382.88L476.99 381.84L477.16 380.81L477.37 379.77L477.61 378.74L477.89 377.73L478.19 376.71L478.53 375.71L478.9 374.7L479.3 373.71L479.73 372.74L480.2 371.78L480.69 370.82L481.22 369.87L481.77 368.96L482.37 368.04L482.99 367.14L483.64 366.25L484.33 365.39L485.04 364.55L485.79 363.71L486.57 362.9L487.38 362.11L488.2 361.35L489.05 360.63L489.91 359.93L490.78 359.27L491.67 358.66L492.57 358.06L493.49 357.5L494.42 356.97L495.38 356.47L496.33 355.99L497.29 355.56L498.27 355.15L499.26 354.77L500.26 354.45L501.26 354.13L502.27 353.86L503.29 353.61L504.32 353.4L505.34 353.21L506.37 353.07L507.41 352.96L508.45 352.87L509.49 352.81L510.53 352.8L511.57 352.8L512.6 352.84L513.66 352.93ZM404.61 482.49L402.94 483.35L401.43 484.54L400.17 485.99L399.28 487.61L398.75 489.36L398.57 491.16L398.75 492.98L399.28 494.77L400.17 496.46L401.43 498L402.85 499.26L404.46 500.16L406.18 500.7L407.99 500.88L409.79 500.7L411.56 500.16L413.23 499.26L414.76 498L415.99 496.46L416.85 494.82L417.36 493.07L417.51 491.26L417.31 489.47L416.78 487.72L415.92 486.06L414.76 484.54L413.32 483.28L411.71 482.41L409.99 481.91L408.19 481.76L406.38 481.95L404.61 482.49Z" id="b53E2ajgSE"></path><path d="M441.68 393.37L435.97 376.35L399.79 357.96L387 370.86L406.32 408.48L422.1 413.14L424.27 410.95L518.95 506.78L534.45 491.13L439.51 395.58L441.68 393.37Z" id="aoZYhiDlw"></path><path d="M441.68 393.37L435.97 376.35L399.79 357.96L387 370.86L406.32 408.48L422.1 413.14L424.27 410.95L518.95 506.78L534.45 491.13L439.51 395.58L441.68 393.37Z" id="g7DupZAD6q"></path><path d="M510.79 506.23C507.33 502.72 479.69 474.6 476.23 471.09C469.97 464.77 469.97 454.06 476.23 447.74C476.23 447.74 476.23 447.74 476.23 447.74C482.5 441.44 493.11 441.44 499.36 447.74C502.81 451.26 530.45 479.37 533.91 482.9C540.17 489.21 540.17 499.64 533.91 506.23C533.91 506.23 533.91 506.23 533.91 506.23C527.65 512.55 517.03 512.55 510.79 506.23Z" id="c2f8HHoBlj"></path><path d="M510.79 506.23C507.33 502.72 479.69 474.6 476.23 471.09C469.97 464.77 469.97 454.06 476.23 447.74C476.23 447.74 476.23 447.74 476.23 447.74C482.5 441.44 493.11 441.44 499.36 447.74C502.81 451.26 530.45 479.37 533.91 482.9C540.17 489.21 540.17 499.64 533.91 506.23C533.91 506.23 533.91 506.23 533.91 506.23C527.65 512.55 517.03 512.55 510.79 506.23Z" id="afrzWMRxC"></path></defs><g><g><g><use xlink:href="#bXVQdstIk" opacity="1" fill="#2c3e50" fill-opacity="1"></use><g><use xlink:href="#bXVQdstIk" opacity="1" fill-opacity="0" stroke="#000000" stroke-width="1" stroke-opacity="0"></use></g></g><g><use xlink:href="#el4aDzg6g" opacity="1" fill="#000000" fill-opacity="0"></use><g><use xlink:href="#el4aDzg6g" opacity="1" fill-opacity="0" stroke="#000000" stroke-width="1" stroke-opacity="0"></use></g></g><g><use xlink:href="#a2jBnGVUTh" opacity="1" fill="#34495e" fill-opacity="1"></use><g><use xlink:href="#a2jBnGVUTh" opacity="1" fill-opacity="0" stroke="#000000" stroke-width="1" stroke-opacity="0"></use></g></g><g><use xlink:href="#d3leQAXaHy" opacity="1" fill="#000000" fill-opacity="0"></use><g><use xlink:href="#d3leQAXaHy" opacity="1" fill-opacity="0" stroke="#000000" stroke-width="1" stroke-opacity="0"></use></g></g><g><use xlink:href="#dTroDV8bu" opacity="1" fill="#ecf0f1" fill-opacity="1"></use><g><use xlink:href="#dTroDV8bu" opacity="1" fill-opacity="0" stroke="#000000" stroke-width="1" stroke-opacity="0"></use></g></g><g><use xlink:href="#aF53VRLg3" opacity="1" fill="#000000" fill-opacity="0"></use><g><use xlink:href="#aF53VRLg3" opacity="1" fill-opacity="0" stroke="#000000" stroke-width="1" stroke-opacity="0"></use></g></g><g><use xlink:href="#a1CKu1HJ0v" opacity="1" fill="#34495e" fill-opacity="1"></use><g><use xlink:href="#a1CKu1HJ0v" opacity="1" fill-opacity="0" stroke="#000000" stroke-width="1" stroke-opacity="0"></use></g></g><g><use xlink:href="#dgJ5NVrVe" opacity="1" fill="#000000" fill-opacity="0"></use><g><use xlink:href="#dgJ5NVrVe" opacity="1" fill-opacity="0" stroke="#000000" stroke-width="1" stroke-opacity="0"></use></g></g><g><use xlink:href="#i1sbzZsgv8" opacity="1" fill="#ecf0f1" fill-opacity="1"></use><g><use xlink:href="#i1sbzZsgv8" opacity="1" fill-opacity="0" stroke="#000000" stroke-width="1" stroke-opacity="0"></use></g></g><g><use xlink:href="#beRtLYyoO" opacity="1" fill="#000000" fill-opacity="0"></use><g><use xlink:href="#beRtLYyoO" opacity="1" fill-opacity="0" stroke="#000000" stroke-width="1" stroke-opacity="0"></use></g></g><g><use xlink:href="#c33ZdmbXaJ" opacity="1" fill="#4b5f83" fill-opacity="1"></use><g><use xlink:href="#c33ZdmbXaJ" opacity="1" fill-opacity="0" stroke="#000000" stroke-width="1" stroke-opacity="0"></use></g></g><g><use xlink:href="#cbt0xi0q5" opacity="1" fill="#000000" fill-opacity="0"></use><g><use xlink:href="#cbt0xi0q5" opacity="1" fill-opacity="0" stroke="#000000" stroke-width="1" stroke-opacity="0"></use></g></g><g><use xlink:href="#c3thpvm3dH" opacity="1" fill="#e6e6e6" fill-opacity="1"></use><g><use xlink:href="#c3thpvm3dH" opacity="1" fill-opacity="0" stroke="#000000" stroke-width="1" stroke-opacity="0"></use></g></g><g><use xlink:href="#b53E2ajgSE" opacity="1" fill="#000000" fill-opacity="0"></use><g><use xlink:href="#b53E2ajgSE" opacity="1" fill-opacity="0" stroke="#000000" stroke-width="1" stroke-opacity="0"></use></g></g><g><use xlink:href="#aoZYhiDlw" opacity="1" fill="#b3b3b3" fill-opacity="1"></use><g><use xlink:href="#aoZYhiDlw" opacity="1" fill-opacity="0" stroke="#000000" stroke-width="1" stroke-opacity="0"></use></g></g><g><use xlink:href="#g7DupZAD6q" opacity="1" fill="#000000" fill-opacity="0"></use><g><use xlink:href="#g7DupZAD6q" opacity="1" fill-opacity="0" stroke="#000000" stroke-width="1" stroke-opacity="0"></use></g></g><g><use xlink:href="#c2f8HHoBlj" opacity="1" fill="#22a7f0" fill-opacity="1"></use><g><use xlink:href="#c2f8HHoBlj" opacity="1" fill-opacity="0" stroke="#000000" stroke-width="1" stroke-opacity="0"></use></g></g><g><use xlink:href="#afrzWMRxC" opacity="1" fill="#000000" fill-opacity="0"></use><g><use xlink:href="#afrzWMRxC" opacity="1" fill-opacity="0" stroke="#000000" stroke-width="1" stroke-opacity="0"></use></g></g></g></g></svg>